# WaveFront *.obj file (generated by Cheetah3D)

mtllib KeyCapWide.mtl

g KeyCapWide
v -1.048974 -0.175000 0.398244
v -1.073225 -0.175000 0.339688
v -1.073225 0.140698 0.339688
v -1.048974 0.140698 0.398244
v -0.933025 0.175000 0.465682
v -0.971488 0.140698 0.475729
v -1.038928 0.175000 0.359781
v -0.912933 -0.175000 0.499984
v -0.971488 -0.175000 0.475729
v -0.912933 0.140698 0.499984
v 1.039755 0.175000 0.359781
v 1.049802 0.140698 0.398244
v 0.972317 0.140698 0.475729
v 0.933855 0.175000 0.465683
v 1.074054 0.140698 0.339688
v 1.074054 -0.175000 0.339688
v 1.049802 -0.175000 0.398244
v 0.913762 0.140698 0.499984
v 0.972317 -0.175000 0.475729
v 0.913762 -0.175000 0.499984
v 1.049802 -0.175000 -0.398244
v 1.074054 -0.175000 -0.339688
v 1.074054 0.140698 -0.339688
v 1.049802 0.140698 -0.398244
v 0.933855 0.175000 -0.465683
v 0.972317 0.140698 -0.475729
v 1.039755 0.175000 -0.359781
v 0.913762 -0.175000 -0.499984
v 0.972317 -0.175000 -0.475729
v 0.913762 0.140698 -0.499984
v -1.038928 0.175000 -0.359781
v -1.048974 0.140698 -0.398244
v -0.971488 0.140698 -0.475729
v -0.933025 0.175000 -0.465682
v -1.073225 0.140698 -0.339688
v -1.073225 -0.175000 -0.339688
v -1.048974 -0.175000 -0.398244
v -0.912933 0.140698 -0.499984
v -0.971488 -0.175000 -0.475729
v -0.912933 -0.175000 -0.499984

vt 0.000000 1.000000
vt 0.160302 0.000000
vt 0.160302 0.901995
vt 0.839698 0.901995
vt 0.839698 0.000000
vt 0.140208 0.034302
vt 0.034302 0.140208
vt 0.034302 0.859792
vt 0.140208 0.965698
vt 0.859792 0.965698
vt 0.965698 0.859792
vt 0.965698 0.140208
vt 0.859792 0.034302
vt 0.101745 0.024255
vt 0.024255 0.101745
vt -0.000000 0.160302
vt -0.000000 0.839698
vt 0.024255 0.898255
vt 0.101745 0.975745
vt 0.160302 1.000000
vt 0.839698 1.000000
vt 0.898255 0.975745
vt 0.975745 0.898255
vt 1.000000 0.839698
vt 1.000000 0.160302
vt 0.975745 0.101745
vt 0.898255 0.024255

vn -0.831484 0.000000 0.555548
vn -0.980791 0.000000 0.195061
vn -0.947814 0.202669 0.246116
vn -0.844272 0.202672 0.496113
vn -0.279546 0.682928 0.674880
vn -0.544152 0.458179 0.702830
vn -0.702845 0.458165 0.544146
vn -0.674915 0.682898 0.279536
vn -0.195094 0.000000 0.980784
vn -0.555571 0.000000 0.831469
vn -0.496146 0.202688 0.844249
vn -0.246154 0.202688 0.947800
vn 0.674899 0.682913 0.279538
vn 0.702839 0.458173 0.544146
vn 0.544157 0.458179 0.702827
vn 0.279549 0.682928 0.674879
vn 0.844264 0.202680 0.496124
vn 0.947809 0.202679 0.246130
vn 0.980789 0.000000 0.195074
vn 0.831479 0.000000 0.555556
vn 0.246157 0.202688 0.947800
vn 0.496150 0.202687 0.844247
vn 0.555575 0.000000 0.831466
vn 0.195096 0.000000 0.980784
vn 0.831479 0.000000 -0.555556
vn 0.980789 0.000000 -0.195074
vn 0.947809 0.202679 -0.246130
vn 0.844264 0.202680 -0.496124
vn 0.279549 0.682928 -0.674879
vn 0.544157 0.458179 -0.702827
vn 0.702839 0.458173 -0.544146
vn 0.674899 0.682913 -0.279538
vn 0.195096 0.000000 -0.980784
vn 0.555575 0.000000 -0.831466
vn 0.496150 0.202687 -0.844247
vn 0.246157 0.202688 -0.947800
vn -0.674915 0.682898 -0.279536
vn -0.702845 0.458165 -0.544146
vn -0.544152 0.458179 -0.702830
vn -0.279546 0.682928 -0.674880
vn -0.844272 0.202672 -0.496113
vn -0.947814 0.202669 -0.246116
vn -0.980791 0.000000 -0.195061
vn -0.831484 0.000000 -0.555548
vn -0.246154 0.202688 -0.947800
vn -0.496146 0.202688 -0.844249
vn -0.555571 0.000000 -0.831469
vn -0.195094 0.000000 -0.980784
vn -0.159157 0.649921 0.743150
vn -0.221877 0.814767 0.535654
vn 0.221879 0.814767 0.535653
vn 0.159159 0.649920 0.743150
vn 0.159159 0.649920 -0.743150
vn 0.221879 0.814767 -0.535653
vn -0.221877 0.814767 -0.535654
vn -0.159157 0.649921 -0.743150
vn 0.881760 0.458161 0.112193
vn 0.881760 0.458161 -0.112193
vn -0.881771 0.458141 0.112188
vn -0.881771 0.458141 -0.112188
vn -0.516070 0.347166 0.783037
vn -0.188779 0.347168 0.918606
vn -0.783056 0.347155 0.516049
vn -0.918624 0.347136 0.188749
vn 0.783049 0.347161 0.516055
vn 0.918616 0.347152 0.188760
vn 0.516075 0.347166 0.783035
vn 0.188781 0.347168 0.918606
vn 0.516075 0.347166 -0.783035
vn 0.188781 0.347168 -0.918606
vn 0.783049 0.347161 -0.516055
vn 0.918616 0.347152 -0.188760
vn -0.783056 0.347155 -0.516049
vn -0.918624 0.347136 -0.188749
vn -0.516070 0.347166 -0.783037
vn -0.188779 0.347168 -0.918606
vn -0.000000 0.923879 0.382684
vn 0.000000 1.000000 0.000000
vn -0.000000 0.923879 -0.382684
vn 0.000000 -1.000000 0.000000

usemtl default
f 4/1/4 3/1/3 2/1/2 1/1/1
f 7/1/8 4/1/7 6/1/6 5/1/5
f 10/1/12 6/1/11 9/1/10 8/1/9
f 14/1/16 13/1/15 12/1/14 11/1/13
f 17/1/20 16/1/19 15/1/18 12/1/17
f 20/1/24 19/1/23 13/1/22 18/1/21
f 24/1/28 23/1/27 22/1/26 21/1/25
f 27/1/32 24/1/31 26/1/30 25/1/29
f 30/1/36 26/1/35 29/1/34 28/1/33
f 34/1/40 33/1/39 32/1/38 31/1/37
f 37/1/44 36/1/43 35/1/42 32/1/41
f 40/1/48 39/1/47 33/1/46 38/1/45
f 18/1/52 14/1/51 5/1/50 10/1/49
f 38/1/56 34/1/55 25/1/54 30/1/53
f 23/1/58 27/1/32 11/1/13 15/1/57
f 31/1/37 35/1/60 3/1/59 7/1/8
f 10/1/62 5/1/5 6/1/61
f 7/1/8 3/1/64 4/1/63
f 15/1/66 11/1/13 12/1/65
f 18/1/68 13/1/67 14/1/16
f 30/1/70 25/1/29 26/1/69
f 27/1/32 23/1/72 24/1/71
f 35/1/74 31/1/37 32/1/73
f 38/1/76 33/1/75 34/1/40
f 6/1/61 4/1/63 1/1/1 9/1/10
f 19/1/23 17/1/20 12/1/65 13/1/67
f 26/1/69 24/1/71 21/1/25 29/1/34
f 39/1/47 37/1/44 32/1/73 33/1/75
f 20/5/24 18/4/21 10/3/12 8/2/9
f 40/5/48 38/4/45 30/3/36 28/2/33
f 22/5/26 23/4/72 15/3/66 16/2/19
f 2/5/2 3/4/64 35/3/74 36/2/43
f 14/13/77 11/12/78 27/11/78 25/10/79 34/9/79 31/8/78 7/7/78 5/6/77
f 28/5/80 29/27/80 21/26/80 22/25/80 16/24/80 17/23/80 19/22/80 20/21/80 8/20/80 9/19/80 1/18/80 2/17/80 36/16/80 37/15/80 39/14/80 40/2/80

